# xmcd CD database file
#
# Track frame offsets:
#	152
#	13580
#	26342
#	43937
#	56607
#	70565
#	84212
#	98167
#	112972
#	126122
#	140552
#	154350
#	165955
#	180160
#	194560
#	207085
#	221735
#	236910
#	255082
#	267180
#
# Disc length: 3721 seconds
#
# Revision: 2
# Processed by: cddbd v1.4PL0 Copyright (c) Steve Scherf et al.
# Submitted via: CDex 1.50
#
DISCID=080e8714
DTITLE=Gary Stewart - The Essential Gary Stewart
DYEAR=1997
DGENRE=Country
TTITLE0=Drinkin' Thing
TTITLE1=Honky-Tonkin'
TTITLE2=Roarin'
TTITLE3=She's Actin' Single (I'm Drinkin' Doubles)
TTITLE4=Back Sliders Wine
TTITLE5=Out Of Hand
TTITLE6=Single Again
TTITLE7=Quits
TTITLE8=Oh, Sweet Temptation
TTITLE9=In Some Room Above The Street
TTITLE10=Your Place Or Mine
TTITLE11=Ten Years Of This
TTITLE12=Whiskey Trip
TTITLE13=Stone Wall (Around Your Heart)
TTITLE14=Flat Natural Born Good-Timin' Man
TTITLE15=Mazelle
TTITLE16=Cactus And A Rose
TTITLE17=Are We Dreamin' The Same Dream
TTITLE18=I See The Want In Your Eyes
TTITLE19=Brotherly Love
EXTD=YEAR: 1997
EXTT0=
EXTT1=
EXTT2=
EXTT3=
EXTT4=
EXTT5=
EXTT6=
EXTT7=
EXTT8=
EXTT9=
EXTT10=
EXTT11=
EXTT12=
EXTT13=
EXTT14=
EXTT15=
EXTT16=
EXTT17=
EXTT18=
EXTT19=duet with Dean Dillon
PLAYORDER=
